<svg id="Layer_1" data-name="Layer 1" xmlns="http://www.w3.org/2000/svg" viewBox="0 0 1080 1080"><defs><style>.cls-1{fill:#231f20;}.cls-2{fill:#e97625;}.cls-3{fill:#6bbe45;}.cls-4{fill: transparent;}</style></defs><rect class="cls-4" width="1080" height="1080"/><path class="cls-2" d="M508.16,666.42H466.05L458.82,687H441.59l36-100.71h19.1l36,100.71H515.4ZM503.53,653l-16.35-46.74L470.68,653Z"/><path class="cls-2" d="M547.88,625.47a36.34,36.34,0,0,1,32.63-19.53,34.84,34.84,0,0,1,16.43,3.69,33.38,33.38,0,0,1,11.21,9.19V607.24h16.64V687H608.15V675.11a32.73,32.73,0,0,1-11.43,9.4A36.94,36.94,0,0,1,561.41,683a37.47,37.47,0,0,1-13.53-14.76,45.34,45.34,0,0,1-5-21.48A44.15,44.15,0,0,1,547.88,625.47Zm56.87,7.24a23.86,23.86,0,0,0-8.9-9.26A23.31,23.31,0,0,0,584,620.26a23.44,23.44,0,0,0-20.77,12.23,28.47,28.47,0,0,0-3.4,14.26,29.69,29.69,0,0,0,3.4,14.47,24,24,0,0,0,9,9.47A23,23,0,0,0,584,674a23.3,23.3,0,0,0,11.86-3.18,23.75,23.75,0,0,0,8.9-9.34,29.26,29.26,0,0,0,3.4-14.4A28.84,28.84,0,0,0,604.75,632.71Z"/><path class="cls-2" d="M704,609.84a27.91,27.91,0,0,1,11.29,11.58q4.13,7.68,4.12,18.52v47H703.08V642.4q0-10.7-5.36-16.42t-14.61-5.72q-9.27,0-14.69,5.72T663,642.4V687H646.5V579.89H663V616.5a27.53,27.53,0,0,1,10.63-7.81,35.62,35.62,0,0,1,14.11-2.75A33.5,33.5,0,0,1,704,609.84Z"/><path class="cls-2" d="M739.91,625.47a36.34,36.34,0,0,1,32.63-19.53A34.79,34.79,0,0,1,789,609.63a33.32,33.32,0,0,1,11.22,9.19V607.24h16.64V687H800.18V675.11a32.68,32.68,0,0,1-11.44,9.4,36.92,36.92,0,0,1-35.3-1.52,37.32,37.32,0,0,1-13.53-14.76,45.35,45.35,0,0,1-5-21.48A44.15,44.15,0,0,1,739.91,625.47Zm56.87,7.24a23.93,23.93,0,0,0-8.9-9.26A23.35,23.35,0,0,0,776,620.26a23.44,23.44,0,0,0-20.77,12.23,28.58,28.58,0,0,0-3.4,14.26,29.81,29.81,0,0,0,3.4,14.47,24,24,0,0,0,9,9.47A23,23,0,0,0,776,674a23.34,23.34,0,0,0,11.87-3.18,23.82,23.82,0,0,0,8.9-9.34,29.37,29.37,0,0,0,3.4-14.4A28.94,28.94,0,0,0,796.78,632.71Z"/><path class="cls-2" d="M864.64,609.34a28.44,28.44,0,0,1,14.26-3.4V623h-4.2Q865,623,860,627.93T855,645v42h-16.5V607.24H855v11.58A25.88,25.88,0,0,1,864.64,609.34Z"/><path class="cls-3" d="M254.75,725.4h-10.5l-1.8,5h-4.3l9-24.53h4.76l9,24.53h-4.33Zm-1.15-3.27-4.08-11.38-4.11,11.38Z"/><path class="cls-3" d="M279.89,725.4H269.4l-1.81,5H263.3l9-24.53H277l9,24.53H281.7Zm-1.15-3.27-4.08-11.38-4.11,11.38Z"/><path class="cls-3" d="M310,705.92v24.49h-4.12V719.7H294v10.71h-4.12V705.92H294v10.5h11.79v-10.5Z"/><path class="cls-3" d="M330.47,725.4H320l-1.81,5h-4.29l9-24.53h4.76l9,24.53h-4.33Zm-1.15-3.27-4.08-11.38-4.11,11.38Z"/><path class="cls-3" d="M353.53,730.41l-5.78-9.8h-3.13v9.8H340.5V705.92h8.66a11.13,11.13,0,0,1,4.89,1,6.83,6.83,0,0,1,4,6.35,7,7,0,0,1-5.81,7l6.2,10.15Zm-8.91-13h4.54a4.84,4.84,0,0,0,3.48-1.13,4,4,0,0,0,1.17-3,3.87,3.87,0,0,0-1.15-3,5,5,0,0,0-3.5-1.08h-4.54Z"/><path class="cls-3" d="M378.42,725.4h-10.5l-1.8,5h-4.3l9-24.53h4.76l9,24.53h-4.33Zm-1.16-3.27-4.07-11.38-4.11,11.38Z"/><path class="cls-3" d="M401.54,729.79a7.4,7.4,0,0,1-3.17-2.45,6.1,6.1,0,0,1-1.16-3.7h4.41a3.81,3.81,0,0,0,1.28,2.61,4.6,4.6,0,0,0,3.19,1,5,5,0,0,0,3.32-1,3.25,3.25,0,0,0,1.19-2.59,2.82,2.82,0,0,0-.74-2,4.9,4.9,0,0,0-1.84-1.2,28.5,28.5,0,0,0-3-.92,29.6,29.6,0,0,1-4-1.28,6.58,6.58,0,0,1-2.61-2,5.76,5.76,0,0,1-1.08-3.66,6.4,6.4,0,0,1,1.08-3.7,6.82,6.82,0,0,1,3-2.43,11.13,11.13,0,0,1,4.51-.85,9.52,9.52,0,0,1,6,1.78,6.53,6.53,0,0,1,2.58,4.88h-4.55a3.17,3.17,0,0,0-1.3-2.29,4.89,4.89,0,0,0-3.13-1,4.51,4.51,0,0,0-2.89.88,3,3,0,0,0-1.12,2.54,2.54,2.54,0,0,0,.71,1.85,4.88,4.88,0,0,0,1.78,1.14,28.79,28.79,0,0,0,3,.92,30.09,30.09,0,0,1,4.06,1.34,6.74,6.74,0,0,1,2.67,2.06,5.86,5.86,0,0,1,1.1,3.72,6.52,6.52,0,0,1-1,3.52,7.41,7.41,0,0,1-3,2.66,10.11,10.11,0,0,1-4.64,1A11.43,11.43,0,0,1,401.54,729.79Z"/><path class="cls-3" d="M423.69,705.92v15.61a5.49,5.49,0,0,0,1.5,4.19,6.92,6.92,0,0,0,8.37,0,5.49,5.49,0,0,0,1.5-4.19V705.92h4.11v15.54a9.16,9.16,0,0,1-1.33,5.07,8.19,8.19,0,0,1-3.57,3.1,11.82,11.82,0,0,1-4.95,1,11.65,11.65,0,0,1-4.92-1,8,8,0,0,1-3.52-3.1,9.32,9.32,0,0,1-1.3-5.07V705.92Z"/><path class="cls-3" d="M459.72,707.42a10.85,10.85,0,0,1,4.65,4.29,12.75,12.75,0,0,1,1.64,6.54,12.43,12.43,0,0,1-1.64,6.48,10.76,10.76,0,0,1-4.65,4.22,16,16,0,0,1-7,1.46h-8.19V705.92h8.19A15.57,15.57,0,0,1,459.72,707.42Zm-.27,17.39a8.86,8.86,0,0,0,2.34-6.56,9.14,9.14,0,0,0-2.34-6.66q-2.35-2.4-6.75-2.4h-4.08v17.94h4.08Q457.1,727.13,459.45,724.81Z"/><path class="cls-3" d="M485.29,707.42a10.88,10.88,0,0,1,4.66,4.29,12.75,12.75,0,0,1,1.64,6.54,12.43,12.43,0,0,1-1.64,6.48,10.79,10.79,0,0,1-4.66,4.22,15.9,15.9,0,0,1-7,1.46h-8.19V705.92h8.19A15.5,15.5,0,0,1,485.29,707.42ZM485,724.81a8.82,8.82,0,0,0,2.35-6.56,9.1,9.1,0,0,0-2.35-6.66q-2.34-2.4-6.74-2.4H474.2v17.94h4.08Q482.67,727.13,485,724.81Z"/><path class="cls-3" d="M515.69,705.92v24.49h-4.11V719.7h-11.8v10.71h-4.11V705.92h4.11v10.5h11.8v-10.5Z"/><path class="cls-3" d="M536.22,725.4h-10.5l-1.8,5h-4.3l9-24.53h4.76l9,24.53H538Zm-1.16-3.27L531,710.75l-4.12,11.38Z"/><path class="cls-3" d="M550.32,705.92v15.61a5.49,5.49,0,0,0,1.5,4.19,6.92,6.92,0,0,0,8.37,0,5.49,5.49,0,0,0,1.5-4.19V705.92h4.11v15.54a9.16,9.16,0,0,1-1.34,5.07,8.19,8.19,0,0,1-3.57,3.1,11.77,11.77,0,0,1-4.94,1,11.62,11.62,0,0,1-4.92-1,8,8,0,0,1-3.52-3.1,9.32,9.32,0,0,1-1.3-5.07V705.92Z"/><path class="cls-3" d="M584.23,729.79a7.4,7.4,0,0,1-3.17-2.45,6.1,6.1,0,0,1-1.15-3.7h4.4a3.81,3.81,0,0,0,1.28,2.61,4.6,4.6,0,0,0,3.19,1,5,5,0,0,0,3.32-1,3.25,3.25,0,0,0,1.19-2.59,2.82,2.82,0,0,0-.74-2,4.9,4.9,0,0,0-1.84-1.2,28.5,28.5,0,0,0-3.05-.92,30.08,30.08,0,0,1-4-1.28,6.58,6.58,0,0,1-2.61-2,5.76,5.76,0,0,1-1.08-3.66,6.4,6.4,0,0,1,1.08-3.7,6.82,6.82,0,0,1,3-2.43,11.13,11.13,0,0,1,4.51-.85,9.52,9.52,0,0,1,6,1.78,6.53,6.53,0,0,1,2.58,4.88H592.6a3.19,3.19,0,0,0-1.29-2.29,4.94,4.94,0,0,0-3.14-1,4.53,4.53,0,0,0-2.89.88,3,3,0,0,0-1.12,2.54,2.54,2.54,0,0,0,.71,1.85,4.88,4.88,0,0,0,1.78,1.14,28.79,28.79,0,0,0,3,.92,30.09,30.09,0,0,1,4.06,1.34,6.74,6.74,0,0,1,2.67,2.06,5.86,5.86,0,0,1,1.1,3.72,6.52,6.52,0,0,1-1,3.52,7.41,7.41,0,0,1-3,2.66,10.11,10.11,0,0,1-4.64,1A11.43,11.43,0,0,1,584.23,729.79Z"/><path class="cls-3" d="M617.42,725.4H606.93l-1.81,5h-4.29l9-24.53h4.76l9,24.53h-4.33Zm-1.15-3.27-4.08-11.38-4.11,11.38Z"/><path class="cls-3" d="M643.65,705.92v3.27H637v21.22h-4.11V709.19h-6.71v-3.27Z"/><path class="cls-3" d="M664,705.92v3.27h-6.67v21.22h-4.12V709.19H646.5v-3.27Z"/><path class="cls-3" d="M689.76,705.92l-9.42,24.49h-4.76l-9.45-24.49h4.4L678,726.29l7.47-20.37Z"/><path class="cls-3" d="M708.3,725.4H697.8l-1.8,5h-4.29l9-24.53h4.76l9,24.53H710.1Zm-1.15-3.27-4.08-11.38L699,722.13Z"/><path class="cls-3" d="M731.43,729.79a7.37,7.37,0,0,1-3.18-2.45,6.1,6.1,0,0,1-1.15-3.7h4.4a3.81,3.81,0,0,0,1.28,2.61,4.61,4.61,0,0,0,3.19,1,5,5,0,0,0,3.32-1,3.25,3.25,0,0,0,1.19-2.59,2.82,2.82,0,0,0-.74-2,4.9,4.9,0,0,0-1.84-1.2,28.5,28.5,0,0,0-3-.92,29.4,29.4,0,0,1-4-1.28,6.54,6.54,0,0,1-2.62-2,5.76,5.76,0,0,1-1.08-3.66,6.4,6.4,0,0,1,1.08-3.7,6.82,6.82,0,0,1,3-2.43,11.13,11.13,0,0,1,4.51-.85,9.52,9.52,0,0,1,6,1.78,6.53,6.53,0,0,1,2.58,4.88h-4.55A3.19,3.19,0,0,0,738.5,710a4.92,4.92,0,0,0-3.14-1,4.53,4.53,0,0,0-2.89.88,3.06,3.06,0,0,0-1.12,2.54,2.54,2.54,0,0,0,.71,1.85,5,5,0,0,0,1.78,1.14,28.79,28.79,0,0,0,3,.92,30.09,30.09,0,0,1,4.06,1.34,6.67,6.67,0,0,1,2.67,2.06,5.86,5.86,0,0,1,1.1,3.72,6.52,6.52,0,0,1-1,3.52,7.34,7.34,0,0,1-3,2.66,10.08,10.08,0,0,1-4.64,1A11.35,11.35,0,0,1,731.43,729.79Z"/><path class="cls-3" d="M769.52,705.92v24.49h-4.11V719.7h-11.8v10.71H749.5V705.92h4.11v10.5h11.8v-10.5Z"/><path class="cls-3" d="M779,705.92v15.61a5.49,5.49,0,0,0,1.5,4.19,5.81,5.81,0,0,0,4.16,1.41,5.9,5.9,0,0,0,4.21-1.41,5.48,5.48,0,0,0,1.49-4.19V705.92h4.12v15.54a9.16,9.16,0,0,1-1.34,5.07,8.19,8.19,0,0,1-3.57,3.1,12.34,12.34,0,0,1-9.87,0,7.93,7.93,0,0,1-3.51-3.1,9.32,9.32,0,0,1-1.3-5.07V705.92Z"/><path class="cls-3" d="M815,707.42a10.88,10.88,0,0,1,4.66,4.29,12.75,12.75,0,0,1,1.64,6.54,12.43,12.43,0,0,1-1.64,6.48A10.79,10.79,0,0,1,815,729a16,16,0,0,1-7,1.46h-8.19V705.92H808A15.56,15.56,0,0,1,815,707.42Zm-.27,17.39a8.82,8.82,0,0,0,2.35-6.56,9.1,9.1,0,0,0-2.35-6.66q-2.34-2.4-6.74-2.4h-4.08v17.94H808Q812.42,727.13,814.76,724.81Z"/><path class="cls-3" d="M840.61,707.42a10.8,10.8,0,0,1,4.65,4.29,12.66,12.66,0,0,1,1.65,6.54,12.34,12.34,0,0,1-1.65,6.48,10.71,10.71,0,0,1-4.65,4.22,16,16,0,0,1-7,1.46H825.4V705.92h8.19A15.57,15.57,0,0,1,840.61,707.42Zm-.27,17.39a8.86,8.86,0,0,0,2.34-6.56,9.14,9.14,0,0,0-2.34-6.66q-2.34-2.4-6.75-2.4h-4.07v17.94h4.07Q838,727.13,840.34,724.81Z"/><path class="cls-3" d="M871,705.92v24.49h-4.11V719.7h-11.8v10.71H851V705.92h4.11v10.5h11.8v-10.5Z"/><path class="cls-3" d="M880.53,705.92v24.49h-4.11V705.92Z"/><path class="cls-1" d="M328.67,551.68a28,28,0,0,1-5.76,7.2c-.66.59-1.34,1.14-2.05,1.66l-.46,0A28.06,28.06,0,0,0,328.67,551.68Z"/><path class="cls-1" d="M320.91,556.64a25.12,25.12,0,0,1-6.05,4,25,25,0,1,1,6.05-4Z"/><path class="cls-3" d="M329.25,538A24.88,24.88,0,1,1,327,527.7,24.89,24.89,0,0,1,329.25,538Z"/><path class="cls-3" d="M834.07,505.07c11.36,7.09,22.23,13.91,33.14,20.66,2.4,1.49,2.49,3,.91,5.36-16.12,23.85-37.83,37.2-65.51,40.11-18.07,1.9-34.81-2.56-50.46-11.35-9.75-5.48-18-13.28-25.12-22.5-14.12-18.29-20.85-39.07-20.06-62.55.68-20,7.3-37.65,18.83-53.61,8.28-11.47,18.78-19.66,30.5-26.4,13.66-7.85,28.51-10,43.82-9.22a79.77,79.77,0,0,1,44.45,15.63c18.3,13.54,30.76,31.42,36.21,54.46,1,4.43,1.5,9,2.3,13.5.61,3.4-.56,5.2-3.81,6.21q-38.84,12.15-77.59,24.55c-4,1.27-7.91,2.8-11.87,4.18-2.55.89-4.5.92-5.38-2.64-2.91-11.75-6-23.43-9.11-35.13-1-3.73,1-5,4-5.91q20.77-6.6,41.45-13.52c1.55-.53,2.83-2,4.23-3-1.13-1.55-2-3.36-3.42-4.6-9.64-8.73-21.2-10.63-33.24-9.18a41.23,41.23,0,0,0-26.84,14.72c-12.44,14.57-15.38,31.17-9.86,50,7.24,24.76,37.08,41,62.46,28.44A45.86,45.86,0,0,0,834.07,505.07Z"/><path class="cls-3" d="M610.66,519q0-20.61,0-41.21a91.65,91.65,0,0,1,5.4-32.46,107,107,0,0,1,12.75-23.24c11.51-16.43,26.79-27.67,45.49-33.23a106.33,106.33,0,0,1,17.55-3.23c4.78-.58,5.23.14,5.29,5,.14,11.68.22,23.36.45,35,.06,2.78-.84,4-3.5,4.25-13.39,1.25-24.26,7.79-32.36,18.85a46.06,46.06,0,0,0-9.1,27.67q0,30.07,0,60.14c0,9.79-.2,19.58-.36,29.37-.08,5-.71,5.82-5.94,5.83-8.66,0-17.31-.35-26-.42-9.52-.07-9.55,0-9.57-10.21q0-21.07,0-42.16Z"/><path class="cls-3" d="M412.47,472.84q0,36.45-25.66,62.11T324.7,560.62c-1.29,0-2.57,0-3.84-.08l-.46,0a28.06,28.06,0,0,0,8.27-8.84,27.81,27.81,0,0,0-.32-28.8,50.17,50.17,0,1,0-39.11-85.5q-14.31,14.31-14.7,34.09v139.3H236.93V472.84q0-36.43,25.66-62.11t62.11-25.66q36.45,0,62.11,25.66T412.47,472.84Z"/><path class="cls-3" d="M554.75,385.07v92.77q0,21.75-13.75,37.05t-33.26,15.32q-19.51,0-33.27-15.32t-13.76-37.05V386.21H425.45v91.63a108.13,108.13,0,0,0,1.28,16.91,91.51,91.51,0,0,0,22.81,47.9q24.1,26.83,58.2,26.83t58.18-26.83Q590,515.82,590,477.84V385.07Z"/></svg>